PathFileType	4	(X/Y/Z)	45_2_71_p1_0-355_filt_butterworth.trc
DataRate	CameraRate	NumFrames	NumMarkers	Units	OrigDataRate	OrigDataStartFrame	OrigNumFrames
53.0	53.0	7	27	m	53.0	0	355
Frame#	Time	RHip			RKnee			RAnkle			RBigToe			RSmallToe			RHeel			LHip			LKnee			LAnkle			LBigToe			LSmallToe			LHeel			Neck			Head			Nose			RShoulder			RElbow			RWrist			RThumb			RIndex			RPinky			LShoulder			LElbow			LWrist			LThumb			LIndex			LPinky			
		X1	Y1	Z1	X2	Y2	Z2	X3	Y3	Z3	X4	Y4	Z4	X5	Y5	Z5	X6	Y6	Z6	X7	Y7	Z7	X8	Y8	Z8	X9	Y9	Z9	X10	Y10	Z10	X11	Y11	Z11	X12	Y12	Z12	X13	Y13	Z13	X14	Y14	Z14	X15	Y15	Z15	X16	Y16	Z16	X17	Y17	Z17	X18	Y18	Z18	X19	Y19	Z19	X20	Y20	Z20	X21	Y21	Z21	X22	Y22	Z22	X23	Y23	Z23	X24	Y24	Z24	X25	Y25	Z25	X26	Y26	Z26	X27	Y27	Z27	
0	0.0	0.5851652327856516	0.5434505741312514	0.7496315924510688	0.5999146948858478	0.1340049479884518	0.7816883165022289	0.5961820575515585	-0.2205243595687515	0.7512187033701329	0.5951019710597464	-0.276417308522699	0.6337066412650167	0.6533825234843986	-0.2651052518541489	0.6536536652865224	0.5703545279910819	-0.3061031831002381	0.8432615797783956	0.37720065724031226	0.530595382513254	0.7256000303342891	0.402698711483002	0.1246100459019715	0.7381152099255752	0.4227919359109653	-0.27276869482804017	0.7842178183505608	0.4405334129104952	-0.26010243224700164	0.6001092225377382	0.39040410197374315	-0.27490407247911913	0.645376814093842	0.4396707514913845	-0.31931418383838633	0.8246318079654522	0.427934235601355	1.110221261242671	0.746451797551891	0.40592514277521424	1.3560153778830957	0.7172559239065351	0.43092383931175404	1.244073737850402	0.5974796109829007	0.587561658262516	1.032593595538001	0.7552448695504633	0.6464227835116411	0.81553494616652	0.6781468732843505	0.5159056230849247	0.6581727596763561	0.5610238234350851	0.48838923243578697	0.5210744460928766	0.5934719255741516	0.4699094849450568	0.5152575147450733	0.580891626296073	0.46465370813461	0.522186485386162	0.5782714350355582	0.26550962114500554	1.02635731507171	0.7199867532348946	0.27715382830206536	0.7931357176744626	0.6797899465137414	0.434411658023586	0.6422076483685158	0.5741562030114631	0.5217346007861325	0.5505791115128899	0.5795663560552832	0.5225960009136078	0.5374791111950651	0.5384616967553375	0.4589191557436417	0.5435626479700645	0.5221705658347315	
1	0.0188679245283018	0.5853953895777323	0.5430954586722123	0.749827508469766	0.5990758302982366	0.13506062892633217	0.7789386639945023	0.596422702597597	-0.22158050326057077	0.7528783328401113	0.5927958275808338	-0.2739398298543705	0.6335304043825334	0.6530731256894166	-0.2652169147723798	0.6536897034037225	0.5706505767149819	-0.30687801529765085	0.8444607915061615	0.3773406786654895	0.5305852543641836	0.7239860633548937	0.4038466703407977	0.12503402772317215	0.737486966055738	0.4233229204196902	-0.27374407729012773	0.788006321454993	0.44199824611451866	-0.26251644812245445	0.6060911964651182	0.389136753017853	-0.27667777347670636	0.6498729076610937	0.4394325621890249	-0.31878397403835484	0.825494296955151	0.42760796643084364	1.1103812442807401	0.7472883769857848	0.4041779154151004	1.3561636305220037	0.7134005590870928	0.43082551162416516	1.2441782339265854	0.5970456355292776	0.5859363197797784	1.0336498580371363	0.749290007102474	0.645876413750144	0.8184336056356427	0.6791233976164079	0.5147734129398972	0.6616051395164965	0.5600065669303453	0.4935567101683349	0.5264852832218785	0.5871938926955906	0.4687920966681848	0.5196701497190326	0.5927785811421915	0.4596426120262201	0.5280651882004035	0.5833090961185973	0.26712849039917097	1.027378232194878	0.7160518485612506	0.2774285793720217	0.7934829964545403	0.6818160625237409	0.43522435571640844	0.6396201582589804	0.57573114523791	0.5208274511853093	0.5559794783849763	0.5776235567540895	0.5217169327811166	0.5388061263638769	0.5430380897270182	0.4592214547694481	0.5430163383830691	0.5285558580370268	
2	0.0377358490566037	0.5855534593163447	0.5428210891744834	0.7500485109282956	0.5983658379329437	0.13594007030149155	0.7766236292888496	0.5965469925775884	-0.22232695334630906	0.7540304416800981	0.5910473269227731	-0.2715273811270466	0.6320958470418253	0.6528692138940918	-0.265248732184507	0.6536481757186399	0.5708810740885328	-0.30748624116273404	0.845399676569489	0.3774041356955283	0.5306049528098817	0.7226349569273703	0.4046998635361905	0.1250823386495112	0.7373201143767361	0.4237681986927508	-0.27458798805777473	0.791127774243688	0.44289831726125434	-0.2637234663849779	0.6099496130152617	0.38798766430065834	-0.2782786569796203	0.6535860929684328	0.4392513240892025	-0.31841682430692675	0.8261869547143199	0.42743315435476137	1.1104859593866672	0.7477035093708326	0.4034642337467662	1.3563987699830544	0.7099144838137931	0.43071375744516405	1.2444728449957219	0.5966787027453964	0.58491817171386	1.034339283277845	0.7454816143052658	0.6455771354019411	0.8199708908529523	0.6795765198950381	0.5143882713132476	0.6631100677116936	0.5602169864651239	0.49646148406592	0.5296990658966576	0.5833955782837865	0.46843836709749376	0.5215578603875362	0.6010401363752582	0.45654772108938196	0.531450432247562	0.5871728592814178	0.2684845078376668	1.028246855233814	0.7127426527337599	0.2769131676886201	0.7931128494909362	0.6838275222082355	0.4354122478582495	0.6385381575260162	0.5757206916637632	0.5199498387249136	0.559747034366844	0.5766533203760211	0.5210982529930938	0.5393541714787957	0.5468308305411296	0.4601033697427742	0.54130773266026	0.536471243651722	
3	0.0566037735849056	0.5856474181153157	0.5426170230214811	0.7502894924401201	0.5977754398956345	0.13665697232977916	0.7747105197354407	0.5965665974609491	-0.22279059059129586	0.7547195278084987	0.5897792673653383	-0.2692497022875209	0.6297747581286792	0.652753105507408	-0.2652212572055929	0.6535527560918123	0.5710496332466627	-0.3079371966064297	0.8460924360696651	0.37739991666279504	0.5306478597756237	0.7215263477759356	0.40528908909208383	0.1248036378262308	0.7375543982745818	0.424133219739263	-0.2753069302782222	0.7936294574743138	0.4433452267567757	-0.2640345841053038	0.6120805686481218	0.3869790361500304	-0.27968170944054893	0.6565580052633764	0.43912170768432757	-0.3181982276539165	0.8267238071620555	0.4274261518778114	1.110535018133589	0.7476631518272725	0.4035583520416473	1.3566953205913916	0.7067886698882019	0.4306039017920128	1.2448444675467496	0.5963770794231886	0.5843886933519465	1.0347318397328436	0.7434036486219981	0.6454824849964151	0.8204222309394594	0.6796249940990473	0.514596042647692	0.6630487099856519	0.5613592771487457	0.4975544805952748	0.5311604321323874	0.581595530280861	0.4686318834238902	0.5215332967106306	0.6061682220377125	0.45502506833937273	0.532833216022346	0.5900058948152322	0.26958898263197795	1.028966435115893	0.7100367247281091	0.27580922567060057	0.7922337929429901	0.6857441469374348	0.43513279809235106	0.6385583944362772	0.5744889772654915	0.5192301191378786	0.5620257797461972	0.5767816750479169	0.5207079415611349	0.5391972310594129	0.5501663878237274	0.4613779292190337	0.5387625432407993	0.5453344724419351	
4	0.0754716981132075	0.5856852420884724	0.5424728175966221	0.7505453456187026	0.5972953582919748	0.13722503522704432	0.7731666426844449	0.596493187217096	-0.2229982957608599	0.7549900891437192	0.588914447188303	-0.2671765332825863	0.6269389265288824	0.6527071179383481	-0.26515504295069936	0.653427118383778	0.5711598673242991	-0.3082402175396793	0.8465532711079772	0.3773369098996563	0.5307073571866837	0.720639872624806	0.40564514503138144	0.12424658439857336	0.7381295611352878	0.42442343256834275	-0.2759074070987113	0.7955586519045383	0.4434505750071559	-0.26376089835416405	0.6128801598236515	0.38613306889384047	-0.2808619173121812	0.6588302797934408	0.4390383834668104	-0.31811367708913874	0.827118880217454	0.42760331150469716	1.1105280320946431	0.7471332614753423	0.4042345245711793	1.3570278066721586	0.7040140891118845	0.43051126968197356	1.2451799980686045	0.5961390323545861	0.5842293639812239	1.0348974958748482	0.7426400675158298	0.6455499990629489	0.8200630550161756	0.6793875742072419	0.5152425713859464	0.6617822320620758	0.5631376340905355	0.497286626223132	0.5313140199442407	0.5813122966289361	0.46915623283828095	0.520209108648363	0.6086547681719932	0.45473068679146983	0.5327045380194633	0.5919513730112533	0.2704532239535892	1.0295402227684898	0.7079116235199845	0.27431838573670303	0.7910543429700423	0.6874857580815485	0.4345434700619552	0.6392776172564174	0.572400137019564	0.5187966481571376	0.5629597148107401	0.5781346488966155	0.5205139784968359	0.5384092896253196	0.5533712302008669	0.46285816175364014	0.5357064825638482	0.5545632941707834	
5	0.0943396226415094	0.5856749073496417	0.5423780302833232	0.7508109630775055	0.5969163152276299	0.13765795920913593	0.7719593054860319	0.5963384318154457	-0.22297694962033054	0.7548866236041657	0.5883756646714429	-0.2653776140590405	0.6239601411282216	0.6527135685958971	-0.2650706425348927	0.6532949364550746	0.57121538945637	-0.30840463987342426	0.8467963827857127	0.37722400373847853	0.5307768269683366	0.7199551681981985	0.40579882937698675	0.12345983751178144	0.7389853463448666	0.42464428618910605	-0.2763959216664832	0.79696263829203	0.44332596241846955	-0.2632135062022946	0.6127444830018044	0.38547196285996094	-0.2817942670472098	0.660444551806143	0.4389960219290611	-0.31814866562240807	0.8273861997996114	0.42798098574012267	1.1104646128429658	0.7460797954352804	0.40526700560679907	1.3573707525504983	0.7015817132864065	0.4304511861323092	1.2453663330502227	0.5959628283315198	0.5843216628888794	1.0349062201765742	0.7427748284499207	0.6457372141309266	0.8191687922041092	0.6789830141984285	0.5161737019707284	0.6596717996646669	0.5652562523998181	0.49610884741622563	0.5306044673473875	0.5820644252701334	0.4697950025315737	0.518197946160778	0.6089917048205398	0.45532060946095154	0.5315553967336198	0.5931524641606934	0.2710885409739861	1.0299714691189774	0.7063449080850726	0.27264228030566817	0.7897830157314312	0.6889721770107868	0.43380172741030487	0.6402925742530887	0.5698183059024494	0.5187777815156247	0.5626928398481749	0.5808382700489558	0.5204843438117939	0.5370643316961049	0.556771826298603	0.46435709590200824	0.5324652630685668	0.5635754586013846	
6	0.1132075471698113	0.5856243900126503	0.5423222184650007	0.7510812374299918	0.5966290328082654	0.1379694444919033	0.7710558154903707	0.5961140012254147	-0.22275343293503685	0.7544536291082439	0.5881078419868268	-0.26416571150079476	0.6216538893593203	0.6527497573169068	-0.26498764539849734	0.6531806377738371	0.5712198127778032	-0.30843979951860623	0.8468359722041588	0.3770700865116281	0.5308496510458571	0.7194518712203295	0.40578094015180344	0.12249205631109727	0.7400614972893307	0.4248012296106689	-0.2767789771287792	0.7978886973944566	0.4433072414810558	-0.26300027529434095	0.6121233120862428	0.38497234508893974	-0.28253705623072517	0.6615879347507425	0.43898929356349	-0.31828868626353896	0.8275397918276242	0.42873476605832045	1.1103140970962773	0.7440586981399675	0.4061556838293359	1.357612016190305	0.7000474615033282	0.4304641186445789	1.245043065541855	0.5958158619048022	0.5845124920032954	1.0348492284190844	0.7432686621273134	0.6459140040163156	0.8183435615859116	0.678443445613143	0.5170974505481396	0.6573670079218974	0.5670934498269256	0.4943609993520879	0.5294460877367253	0.5834922426360412	0.4698638889063751	0.5164899808306986	0.6077104264197817	0.456238311896937	0.5300702614505777	0.5937322361538004	0.2715664021717503	1.0303008400137341	0.7051698926471847	0.27113190892117733	0.7886212292728964	0.6902008861444562	0.4332188555778639	0.6407878420486095	0.5674120818299064	0.5194650792351245	0.5608112219257718	0.5865340040104725	0.5202497663449805	0.5347517849156987	0.5618642976533722	0.4653425730357328	0.5297651912437822	0.5709147311392457	
